<!DOCTYPE svg PUBLIC "-//W3C//DTD SVG 20010904//EN" "http://www.w3.org/TR/2001/REC-SVG-20010904/DTD/svg10.dtd">
<svg version="1.0" xmlns="http://www.w3.org/2000/svg" width="42px" height="42px" viewBox="0 0 420 420" preserveAspectRatio="xMidYMid meet">
<g id="layer1" fill="#93a2ff" stroke="none">
 <path d="M148 413 c7 -3 12 -26 12 -62 0 -57 1 -58 25 -53 23 4 25 8 25 63 l0 59 -37 -1 c-21 0 -32 -3 -25 -6z"/>
 </g>
<g id="layer2" fill="#0023ff" stroke="none">
 <path d="M210 360 c0 -54 2 -60 20 -60 36 0 70 -44 70 -90 0 -56 -34 -90 -90 -90 -79 0 -120 89 -70 153 27 34 29 137 3 137 -32 0 -83 -39 -113 -87 -26 -40 -30 -57 -30 -114 0 -59 4 -73 33 -115 45 -67 95 -94 177 -94 82 0 132 27 178 94 28 43 32 56 32 116 0 60 -4 73 -32 116 -37 55 -97 94 -145 94 l-33 0 0 -60z"/>
 <path d="M370 395 c0 -20 5 -25 25 -25 20 0 25 5 25 25 0 20 -5 25 -25 25 -20 0 -25 -5 -25 -25z"/>
 </g>

</svg>