<?xml version="1.0" encoding="utf-8"?>
<!-- Generator: Adobe Illustrator 21.1.0, SVG Export Plug-In . SVG Version: 6.00 Build 0)  -->
<svg version="1.1" id="Layer_1" xmlns="http://www.w3.org/2000/svg" xmlns:xlink="http://www.w3.org/1999/xlink" x="0px" y="0px"
	 viewBox="0 0 56.3 37.8" style="enable-background:new 0 0 56.3 37.8;" xml:space="preserve">
<style type="text/css">
	.st0{fill:none;stroke:#D8D8D8;stroke-width:4;stroke-linecap:square;stroke-miterlimit:10;}
	.st1{fill:none;stroke:#D8D8D8;stroke-width:2;stroke-linecap:square;stroke-miterlimit:10;}
</style>
<g>
	<g>
		<path class="st0" d="M3.3,3.7V32c0,1.1,0.9,2,2,2h46.2c1.1,0,2-0.9,2-2V3.7"/>
	</g>
	<g>
		<path class="st1" d="M46.6,7.3l-1.8,1.8c-0.8,0.8-2.1,0.8-2.8,0l-2.3-2.3c-0.8-0.8-2.1-0.8-2.8,0l-2.3,2.3c-0.8,0.8-2.1,0.8-2.8,0
			l-2.3-2.3c-0.8-0.8-2.1-0.8-2.8,0l-2.3,2.3c-0.8,0.8-2.1,0.8-2.8,0l-2.3-2.3C18.3,6,17,6,16.3,6.8l-2.3,2.3
			c-0.8,0.8-2.1,0.8-2.8,0L9,7"/>
	</g>
	<g>
		<path class="st1" d="M25.7,23.6c2.7,0,5.2-1.2,6.9-3.1c-1.7-1.9-4.2-3.1-6.9-3.1c-2.7,0-5.2,1.2-6.9,3.1
			C20.5,22.4,22.9,23.6,25.7,23.6z"/>
		<polygon class="st1" points="36.4,24.5 32.4,20.5 36.4,16.6 		"/>
	</g>
</g>
</svg>
