<?xml version="1.0" encoding="utf-8"?>
<!-- Generator: Adobe Illustrator 21.1.0, SVG Export Plug-In . SVG Version: 6.00 Build 0)  -->
<svg version="1.1" id="Layer_1" xmlns="http://www.w3.org/2000/svg" xmlns:xlink="http://www.w3.org/1999/xlink" x="0px" y="0px"
	 viewBox="0 0 64 51.3" style="enable-background:new 0 0 64 51.3;" xml:space="preserve">
<style type="text/css">
	.st0{fill:none;stroke:#D8D8D8;stroke-width:4;stroke-linecap:square;stroke-miterlimit:10;}
	.st1{fill:none;stroke:#D8D8D8;stroke-width:3;stroke-linecap:square;stroke-miterlimit:10;}
	.st2{fill:none;stroke:#D8D8D8;stroke-width:2;stroke-linecap:square;stroke-miterlimit:10;}
	.st3{fill:none;stroke:#D8D8D8;stroke-linecap:square;stroke-miterlimit:10;}
</style>
<g>
	<g>
		<path class="st0" d="M3.1,3.3v34.5c0,1.1,0.9,2,2,2h53.7c1.1,0,2-0.9,2-2V3.3"/>
	</g>
	<g>
		<path class="st1" d="M59.9,48.8v-2.5c0-1.1-0.9-2-2-2H5.1c-1.1,0-2,0.9-2,2v2.5"/>
	</g>
	<g>
		<line class="st2" x1="60.6" y1="7.8" x2="3.7" y2="7.8"/>
	</g>
	<g>
		<line class="st2" x1="60.6" y1="30.8" x2="3.7" y2="30.8"/>
	</g>
	<g>
		<line class="st3" x1="60.6" y1="33.8" x2="3.7" y2="33.8"/>
	</g>
	<g>
		<line class="st2" x1="11.7" y1="8.8" x2="11.7" y2="29.3"/>
	</g>
	<g>
		<line class="st2" x1="19.7" y1="8.8" x2="19.7" y2="29.3"/>
	</g>
	<g>
		<line class="st2" x1="27.7" y1="8.8" x2="27.7" y2="29.3"/>
	</g>
	<g>
		<line class="st2" x1="35.7" y1="8.8" x2="35.7" y2="29.3"/>
	</g>
	<g>
		<line class="st2" x1="43.7" y1="8.8" x2="43.7" y2="29.3"/>
	</g>
	<g>
		<line class="st2" x1="51.7" y1="8.8" x2="51.7" y2="29.3"/>
	</g>
</g>
</svg>
