<?xml version="1.0" encoding="utf-8"?>
<!-- Generator: Adobe Illustrator 21.1.0, SVG Export Plug-In . SVG Version: 6.00 Build 0)  -->
<svg version="1.1" id="Layer_1" xmlns="http://www.w3.org/2000/svg" xmlns:xlink="http://www.w3.org/1999/xlink" x="0px" y="0px"
	 viewBox="0 0 71.5 56" style="enable-background:new 0 0 71.5 56;" xml:space="preserve">
<style type="text/css">
	.st0{fill:none;stroke:#D8D8D8;stroke-width:2;stroke-linecap:square;stroke-miterlimit:10;}
	.st1{fill:none;stroke:#D8D8D8;stroke-width:3;stroke-linecap:square;stroke-miterlimit:10;}
	.st2{fill:none;stroke:#D8D8D8;stroke-width:4;stroke-linecap:square;stroke-miterlimit:10;}
	.st3{fill:#FFFFFF;stroke:#D8D8D8;stroke-miterlimit:10;}
</style>
<g>
	<g>
		<line class="st0" x1="42" y1="16.3" x2="42" y2="49.8"/>
	</g>
	<g>
		<line class="st0" x1="4.5" y1="16" x2="67.5" y2="16"/>
	</g>
	<g>
		<line class="st0" x1="21" y1="2.8" x2="8.1" y2="2.8"/>
	</g>
	<g>
		<line class="st0" x1="42" y1="2.8" x2="29.1" y2="2.8"/>
	</g>
	<g>
		<line class="st0" x1="63" y1="2.8" x2="50.1" y2="2.8"/>
	</g>
	<g>
		<line class="st1" x1="12.3" y1="53.8" x2="6.1" y2="53.8"/>
	</g>
	<g>
		<line class="st1" x1="65.3" y1="53.8" x2="59.1" y2="53.8"/>
	</g>
	<g>
		<path class="st2" d="M68,48.8c0,1.1-0.9,2-2,2H5c-1.1,0-2-0.9-2-2v-41c0-1.1,0.9-2,2-2h61c1.1,0,2,0.9,2,2V48.8z"/>
	</g>
	<g>
		<path class="st0" d="M35,38.2c0,1.1-0.9,2-2,2H14c-1.1,0-2-0.9-2-2V26.3c0-1.1,0.9-2,2-2h19c1.1,0,2,0.9,2,2V38.2z"/>
	</g>
	<line class="st0" x1="25.6" y1="29" x2="18" y2="36.5"/>
	<line class="st0" x1="31" y1="29" x2="23.4" y2="36.5"/>
	<circle class="st3" cx="15.4" cy="11.3" r="1.6"/>
	<circle class="st3" cx="25.4" cy="11.3" r="1.6"/>
	<circle class="st3" cx="35.4" cy="11.3" r="1.6"/>
	<circle class="st3" cx="45.4" cy="11.3" r="1.6"/>
	<circle class="st3" cx="55.4" cy="11.3" r="1.6"/>
</g>
</svg>
